<?xml version="1.0" encoding="utf-8"?>
<!-- Svg Vector Icons : http://www.onlinewebfonts.com/icon -->
<!DOCTYPE svg PUBLIC "-//W3C//DTD SVG 1.1//EN" "http://www.w3.org/Graphics/SVG/1.1/DTD/svg11.dtd">
<svg version="1.1" xmlns="http://www.w3.org/2000/svg" xmlns:xlink="http://www.w3.org/1999/xlink" x="0px" y="0px" viewBox="0 0 256 256" enable-background="new 0 0 256 256" xml:space="preserve">
<metadata> Svg Vector Icons : http://www.onlinewebfonts.com/icon </metadata>
<g><g><g><path fill="#000000" d="M119,10.3c-18.9,2-37.1,10-51.1,22.5C56.6,42.8,47.5,56.3,42.6,70.4c-9.5,27.2-5.8,55.2,10.8,83.1c7.2,12.1,16.8,24.2,37.2,47.1c17.1,19.2,29.4,34.3,34.8,42.8c2.2,3.4,3.1,3.4,5.4-0.1c2.5-3.9,12.6-17.2,18.1-23.7c2.9-3.4,10.6-12.3,17.2-19.7c16.9-19.1,23-26.4,29.9-36c17-23.8,24.8-49.1,22.2-72.7c-4.4-40.6-34.7-73-74.7-79.9C136.7,10.1,125.1,9.7,119,10.3z M177,66.9c-4,3.9-48.3,40.4-49,40.4S83.1,70.8,79,66.9c-0.9-0.9-0.1-0.9,49-0.9C177.1,65.9,177.9,65.9,177,66.9z M92.4,84.9c9.8,8.3,17.9,15.3,17.8,15.5c-0.1,0.2-7.9,6.8-17.4,14.8c-9.5,7.9-17.6,14.8-18.1,15.2c-0.8,0.7-0.9-0.7-0.9-29.8c0-16.8,0.1-30.6,0.2-30.6S82.5,76.7,92.4,84.9z M182.2,100.5c0,29.1,0,30.5-0.8,29.8c-0.5-0.4-8.6-7.2-18.1-15.2c-9.5-7.9-17.2-14.7-17.2-14.9c0-0.5,35.2-30.3,35.8-30.3C182,69.9,182.2,83.7,182.2,100.5z M119,107.3c5,4.2,6.2,4.9,9,4.9s4-0.6,9.1-4.9c3.7-3.2,4.3-3.5,5-2.9c6.4,5.2,35.4,29.7,35.5,30c0.1,0.2-21.1,0.4-49.6,0.4c-28.7,0-49.7-0.2-49.6-0.4c0.1-0.4,35.9-30.6,36.3-30.6C114.8,103.8,116.7,105.4,119,107.3z"/></g></g></g>
</svg>